<svg width="25" height="20" viewBox="0 0 25 20" fill="none" xmlns="http://www.w3.org/2000/svg">
<path fill-rule="evenodd" clip-rule="evenodd" d="M25 18.8C25 19.4627 24.4627 20 23.8 20H1.2C0.537258 20 0 19.4627 0 18.8C0 18.1373 0.537258 17.6 1.2 17.6H23.8C24.4627 17.6 25 18.1373 25 18.8ZM25 10C25 10.6627 24.4627 11.2 23.8 11.2L1.2 11.2C0.537258 11.2 0 10.6627 0 10C0 9.33726 0.537258 8.8 1.2 8.8L23.8 8.8C24.4627 8.8 25 9.33726 25 10ZM23.8 2.40001C24.4627 2.40001 25 1.86275 25 1.2C25 0.53726 24.4627 0 23.8 0H1.2C0.53726 0 0 0.53726 0 1.2C0 1.86275 0.53726 2.40001 1.2 2.40001H23.8Z" fill="white"/>
</svg>
